HIERARCHY
ROOT hip
{
  OFFSET 96.5243 87.1835 41.8298
  CHANNELS 6 Xposition Yposition Zposition Zrotation Xrotation Yrotation
  JOINT abdomen
  {
    OFFSET 0 20.6881 -0.73152
    CHANNELS 3 Zrotation Xrotation Yrotation
    JOINT chest
    {
      OFFSET 0 11.7043 -0.48768
      CHANNELS 3 Zrotation Xrotation Yrotation
      JOINT neck
      {
        OFFSET 0 22.1894 -2.19456
        CHANNELS 3 Zrotation Xrotation Yrotation
        JOINT head
        {
          OFFSET -0.24384 7.07133 1.2192
          CHANNELS 3 Zrotation Xrotation Yrotation
          JOINT leftEye
          {
            OFFSET 4.14528 8.04674 8.04672
            CHANNELS 3 Zrotation Xrotation Yrotation
            End Site
            {
              OFFSET 1 0 0
            }
          }
          JOINT rightEye
          {
            OFFSET -3.6576 8.04674 8.04672
            CHANNELS 3 Zrotation Xrotation Yrotation
            End Site
            {
              OFFSET 1 0 0
            }
          }
        }
      }
      JOINT rCollar
      {
        OFFSET -2.68224 19.2634 -4.8768
        CHANNELS 3 Zrotation Xrotation Yrotation
        JOINT rShldr
        {
          OFFSET -8.77824 -1.95073 1.46304
          CHANNELS 3 Zrotation Xrotation Yrotation
          JOINT rForeArm
          {
            OFFSET -28.1742 -1.7115 0.48768
            CHANNELS 3 Zrotation Xrotation Yrotation
            JOINT rHand
            {
              OFFSET -22.5879 0.773209 7.07136
              CHANNELS 3 Zrotation Xrotation Yrotation
              JOINT rThumb1
              {
                OFFSET -1.2192 -0.487915 3.41376
                CHANNELS 3 Zrotation Xrotation Yrotation
                JOINT rThumb2
                {
                  OFFSET -3.37035 -0.52449 3.41376
                  CHANNELS 3 Zrotation Xrotation Yrotation
                  End Site
                  {
                    OFFSET -1.78271 -1.18214 1.43049
                  }
                }
              }
              JOINT rIndex1
              {
                OFFSET -7.75947 0.938293 5.60832
                CHANNELS 3 Zrotation Xrotation Yrotation
                JOINT rIndex2
                {
                  OFFSET -2.54057 -0.884171 1.56538
                  CHANNELS 3 Zrotation Xrotation Yrotation
                  End Site
                  {
                    OFFSET -1.62519 -0.234802 1.16502
                  }
                }
              }
              JOINT rMid1
              {
                OFFSET -8.24714 1.18213 3.41376
                CHANNELS 3 Zrotation Xrotation Yrotation
                JOINT rMid2
                {
                  OFFSET -3.10165 -0.590103 1.0647
                  CHANNELS 3 Zrotation Xrotation Yrotation
                  End Site
                  {
                    OFFSET -2.48547 -0.328903 0.83742
                  }
                }
              }
              JOINT rRing1
              {
                OFFSET -8.82822 0.546677 1.51678
                CHANNELS 3 Zrotation Xrotation Yrotation
                JOINT rRing2
                {
                  OFFSET -2.60934 -0.819778 -0.0198488
                  CHANNELS 3 Zrotation Xrotation Yrotation
                  End Site
                  {
                    OFFSET -2.33842 -0.294052 0.168128
                  }
                }
              }
              JOINT rPinky1
              {
                OFFSET -8.27202 -0.0477905 -0.4584
                CHANNELS 3 Zrotation Xrotation Yrotation
                JOINT rPinky2
                {
                  OFFSET -1.82734 -0.647385 -0.700984
                  CHANNELS 3 Zrotation Xrotation Yrotation
                  End Site
                  {
                    OFFSET -1.69225 -0.51767 -0.607171
                  }
                }
              }
            }
          }
        }
      }
      JOINT lCollar
      {
        OFFSET 2.68224 19.2634 -4.8768
        CHANNELS 3 Zrotation Xrotation Yrotation
        JOINT lShldr
        {
          OFFSET 8.77824 -1.95073 1.46304
          CHANNELS 3 Zrotation Xrotation Yrotation
          JOINT lForeArm
          {
            OFFSET 28.1742 -1.7115 0.48768
            CHANNELS 3 Zrotation Xrotation Yrotation
            JOINT lHand
            {
              OFFSET 22.5879 0.773209 7.07136
              CHANNELS 3 Zrotation Xrotation Yrotation
              JOINT lThumb1
              {
                OFFSET 1.2192 -0.487915 3.41376
                CHANNELS 3 Zrotation Xrotation Yrotation
                JOINT lThumb2
                {
                  OFFSET 3.37035 -0.52449 3.41376
                  CHANNELS 3 Zrotation Xrotation Yrotation
                  End Site
                  {
                    OFFSET 1.78271 -1.18214 1.43049
                  }
                }
              }
              JOINT lIndex1
              {
                OFFSET 7.75947 0.938293 5.60832
                CHANNELS 3 Zrotation Xrotation Yrotation
                JOINT lIndex2
                {
                  OFFSET 2.54057 -0.884171 1.56538
                  CHANNELS 3 Zrotation Xrotation Yrotation
                  End Site
                  {
                    OFFSET 1.62519 -0.234802 1.16502
                  }
                }
              }
              JOINT lMid1
              {
                OFFSET 8.24714 1.18213 3.41376
                CHANNELS 3 Zrotation Xrotation Yrotation
                JOINT lMid2
                {
                  OFFSET 3.10165 -0.590103 1.0647
                  CHANNELS 3 Zrotation Xrotation Yrotation
                  End Site
                  {
                    OFFSET 2.48547 -0.328903 0.83742
                  }
                }
              }
              JOINT lRing1
              {
                OFFSET 8.82822 0.546677 1.51678
                CHANNELS 3 Zrotation Xrotation Yrotation
                JOINT lRing2
                {
                  OFFSET 2.60934 -0.819778 -0.0198488
                  CHANNELS 3 Zrotation Xrotation Yrotation
                  End Site
                  {
                    OFFSET 2.33842 -0.294052 0.168128
                  }
                }
              }
              JOINT lPinky1
              {
                OFFSET 8.27202 -0.0477905 -0.4584
                CHANNELS 3 Zrotation Xrotation Yrotation
                JOINT lPinky2
                {
                  OFFSET 1.82734 -0.647385 -0.700984
                  CHANNELS 3 Zrotation Xrotation Yrotation
                  End Site
                  {
                    OFFSET 1.69225 -0.51767 -0.607171
                  }
                }
              }
            }
          }
        }
      }
    }
  }
  JOINT rButtock
  {
    OFFSET -8.77824 4.35084 1.2192
    CHANNELS 3 Zrotation Xrotation Yrotation
    JOINT rThigh
    {
      OFFSET 0 -1.70687 -2.19456
      CHANNELS 3 Zrotation Xrotation Yrotation
      JOINT rShin
      {
        OFFSET 0 -36.8199 0.73152
        CHANNELS 3 Zrotation Xrotation Yrotation
        JOINT rFoot
        {
          OFFSET 0.73152 -45.1104 -5.12064
          CHANNELS 3 Zrotation Xrotation Yrotation
          End Site
          {
            OFFSET -1.1221 -3.69964 12.103
          }
        }
      }
    }
  }
  JOINT lButtock
  {
    OFFSET 8.77824 4.35084 1.2192
    CHANNELS 3 Zrotation Xrotation Yrotation
    JOINT lThigh
    {
      OFFSET 0 -1.70687 -2.19456
      CHANNELS 3 Zrotation Xrotation Yrotation
      JOINT lShin
      {
        OFFSET 0 -36.8199 0.73152
        CHANNELS 3 Zrotation Xrotation Yrotation
        JOINT lFoot
        {
          OFFSET -0.73152 -45.1104 -5.12064
          CHANNELS 3 Zrotation Xrotation Yrotation
          End Site
          {
            OFFSET 1.1221 -3.69964 12.103
          }
        }
      }
    }
  }
}
MOTION
Frames:	5
Frame Time:	0.00833333
99.5453 85.0159 -80.629 -0.0307806 0.000155244 0.000536405 0.0404828 0.000270408 0.00114436 0.0111573 0.000489946 0.00193271 -4.38409e-016 1.59028e-015 7.76502e-018 -1.32316e-015 9.54166e-015 2.01891e-017 -0 0 0 -0 0 0 -1.00733e-016 -1.94126e-018 9.93923e-017 -3.20414e-015 -3.60297e-016 9.93923e-016 -7.92654e-014 2.24627e-014 1.59028e-014 -9.13515e-013 -3.08365e-014 3.18055e-015 -2.15592e-012 -1.61198e-014 3.81667e-014 -3.73556e-012 -2.8625e-014 6.67917e-014 -2.15284e-012 -1.74931e-014 3.18055e-014 7.73091 5.47488 0.417314 -2.15637e-012 -1.63997e-014 4.13472e-014 2.90554 0.965183 0.102902 -2.14854e-012 -1.63997e-014 3.97569e-014 10.2786 0.731801 0.0259123 -2.15999e-012 -1.35174e-014 4.77083e-014 2.22167 -0.733487 -0.20892 -2.96852e-016 -1.55301e-018 -9.93923e-017 -6.34024e-015 -3.54085e-016 -9.93923e-016 -7.95139e-014 -2.66371e-014 -3.18055e-014 -9.16056e-013 9.61621e-015 4.77083e-014 -2.15527e-012 -3.40165e-014 3.49861e-014 -3.70296e-012 -5.40694e-014 6.67917e-014 -2.1592e-012 -3.33958e-014 5.08889e-014 -7.73091 5.47488 -0.417314 -2.15478e-012 -3.38928e-014 3.81667e-014 -2.90554 0.965183 -0.102902 -2.15716e-012 -3.4191e-014 3.89618e-014 -10.2786 0.731801 -0.0259123 -2.1431e-012 -2.90226e-014 3.49861e-014 -2.22167 -0.733487 0.20892 -2.03217e-016 0 -3.88251e-019 0.554631 -3.16496 -0.0436848 -0.00574513 0.17961 -0.050557 -0.523869 2.98421 0.121167 2.03217e-016 0 3.88251e-019 -0.493044 -3.01454 0.0399656 0.00619337 -0.0928804 0.0545634 0.523468 3.10627 -0.123627 
100.333 84.3198 -81.2049 1.64427 0.90612 -1.57653 -3.12252 0.00923371 0.388648 0.597898 0.655381 0.0969172 -0.638044 1.71017 -1.16797 1.72525 6.87098 -2.59703 -0 0 0 -0 0 0 -5.5676e-014 3.28474e-014 3.33842e-014 22.1425 18.0725 0.944555 -21.2385 -19.0644 15.1072 0.940351 -21.8159 -2.32001 2.37864e-010 -5.98895e-010 -1.3087e-010 4.16667e-010 -1.0854e-009 -2.09784e-010 2.37866e-010 -5.98893e-010 -1.30875e-010 7.73091 5.47488 0.417314 2.37863e-010 -5.98893e-010 -1.30868e-010 2.90554 0.965183 0.102902 2.37871e-010 -5.98895e-010 -1.30868e-010 10.2786 0.731801 0.0259123 2.3786e-010 -5.98895e-010 -1.30861e-010 2.22167 -0.733487 -0.20892 -5.58672e-014 3.28479e-014 3.32001e-014 -20.4028 18.066 -0.952226 23.9889 -21.8468 -14.6872 -0.161598 8.9427 -1.20235 6.04069e-010 -1.66823e-009 -1.02452e-010 1.03942e-009 -2.88416e-009 -1.92049e-010 6.04065e-010 -1.66823e-009 -1.02436e-010 -7.73091 5.47488 -0.417314 6.0407e-010 -1.66823e-009 -1.0245e-010 -2.90554 0.965183 -0.102902 6.04066e-010 -1.66823e-009 -1.02449e-010 -10.2786 0.731801 -0.0259123 6.04079e-010 -1.66823e-009 -1.02454e-010 -2.22167 -0.733487 0.20892 -2.03217e-016 0 -3.88251e-019 -1.47213 -11.6336 2.7974 0.00179924 5.97634 0.0660473 -0.744352 0.910247 -3.19358 2.03217e-016 0 3.88251e-019 -1.6851 1.29972 1.0611 -0.00651635 0.627592 -0.0332533 0.555738 2.03554 -4.72313 
100.199 84.2742 -80.3873 3.47005 1.8597 -3.24629 -6.4796 0.0267468 0.800499 1.21283 1.34081 0.198075 -1.23656 3.50468 -2.39959 4.24811 14.0911 -5.45681 -0 0 0 -0 0 0 -1.18617e-013 6.99707e-014 7.15066e-014 44.7421 37.1899 2.34741 -31.3354 -34.49 36.472 -0.696296 -44.7705 -6.24819 5.06115e-010 -1.27083e-009 -2.74818e-010 8.86356e-010 -2.30252e-009 -4.40279e-010 5.06117e-010 -1.27082e-009 -2.7482e-010 7.73091 5.47488 0.417314 5.06115e-010 -1.27082e-009 -2.74816e-010 2.90554 0.965183 0.102902 5.06122e-010 -1.27083e-009 -2.74814e-010 10.2786 0.731801 0.0259123 5.06111e-010 -1.27083e-009 -2.74808e-010 2.22167 -0.733487 -0.20892 -1.18805e-013 6.99713e-014 7.13388e-014 -41.1644 37.1221 -2.32981 34.6613 -39.7157 -37.5953 0.0952889 18.3466 -2.56982 1.2846e-009 -3.53331e-009 -2.11311e-010 2.21053e-009 -6.10896e-009 -3.97023e-010 1.28459e-009 -3.53331e-009 -2.11295e-010 -7.73091 5.47488 -0.417314 1.2846e-009 -3.53331e-009 -2.11309e-010 -2.90554 0.965183 -0.102902 1.28459e-009 -3.53331e-009 -2.11308e-010 -10.2786 0.731801 -0.0259123 1.2846e-009 -3.53331e-009 -2.11314e-010 -2.22167 -0.733487 0.20892 -2.03217e-016 0 -3.88251e-019 -2.65404 -20.518 6.01403 -0.0160806 12.099 0.193536 -1.24885 -1.36454 -6.70172 2.03217e-016 0 3.88251e-019 -3.12007 5.83542 2.15399 -0.0174846 1.38539 -0.125701 0.395647 0.860806 -9.58255 
100.094 84.0699 -79.5552 5.14395 2.70981 -4.73537 -9.44888 0.0271553 1.16366 1.76486 1.96514 0.287036 -1.70439 5.12196 -3.51641 7.14439 20.4377 -8.25821 -0 0 0 -0 0 0 -1.66826e-013 9.85462e-014 9.99537e-014 63.5747 54.1366 4.60141 -30.2343 -39.0266 60.9623 -8.45947 -64.7096 -15.2728 7.17903e-010 -1.79665e-009 -3.92688e-010 1.25747e-009 -3.25614e-009 -6.29484e-010 7.17903e-010 -1.79664e-009 -3.92688e-010 7.73091 5.47488 0.417314 7.17902e-010 -1.79665e-009 -3.92687e-010 2.90554 0.965183 0.102902 7.17909e-010 -1.79665e-009 -3.92683e-010 10.2786 0.731801 0.0259123 7.17899e-010 -1.79666e-009 -3.92678e-010 2.22167 -0.733487 -0.20892 -1.67008e-013 9.85469e-014 9.97992e-014 -58.335 54.116 -4.63669 30.986 -44.363 -66.148 0.755215 26.7779 -3.99188 1.81652e-009 -5.00463e-009 -3.07425e-010 3.12567e-009 -8.65236e-009 -5.76281e-010 1.81651e-009 -5.00463e-009 -3.07409e-010 -7.73091 5.47488 -0.417314 1.81652e-009 -5.00463e-009 -3.07425e-010 -2.90554 0.965183 -0.102902 1.81651e-009 -5.00463e-009 -3.07424e-010 -10.2786 0.731801 -0.0259123 1.81652e-009 -5.00462e-009 -3.07431e-010 -2.22167 -0.733487 0.20892 -2.03217e-016 0 -3.88251e-019 -2.71804 -28.284 9.44279 -0.0565794 17.5696 0.312769 -1.90242 -3.186 -9.83689 2.03217e-016 0 3.88251e-019 -4.53562 9.91422 3.14973 -0.0253072 2.06852 -0.209017 0.108774 -0.0826374 -13.9136 
99.958 84.0446 -78.702 6.33296 3.30907 -5.76831 -11.4479 -0.0151829 1.40508 2.16421 2.43676 0.345368 -1.98962 6.30396 -4.33486 9.56268 24.7637 -10.4734 -0 0 0 -0 0 0 -1.78208e-013 1.05752e-013 1.04213e-013 74.9935 65.7254 7.67683 -28.4332 -35.7215 76.5438 -30.3415 -77.0355 -37.6238 7.8853e-010 -1.95722e-009 -4.45364e-010 1.38215e-009 -3.55099e-009 -7.15467e-010 7.8853e-010 -1.95721e-009 -4.45364e-010 7.73091 5.47488 0.417314 7.88529e-010 -1.95721e-009 -4.45364e-010 2.90554 0.965183 0.102902 7.88536e-010 -1.95722e-009 -4.45359e-010 10.2786 0.731801 0.0259123 7.88526e-010 -1.95723e-009 -4.45354e-010 2.22167 -0.733487 -0.20892 -1.78374e-013 1.05753e-013 1.04064e-013 -68.2122 66.0049 -8.23575 28.126 -39.689 -83.3662 1.53291 32.8234 -5.2012 1.97691e-009 -5.49152e-009 -3.7168e-010 3.4009e-009 -9.49226e-009 -6.91248e-010 1.97691e-009 -5.49152e-009 -3.71664e-010 -7.73091 5.47488 -0.417314 1.97692e-009 -5.49152e-009 -3.7168e-010 -2.90554 0.965183 -0.102902 1.97691e-009 -5.49152e-009 -3.71679e-010 -10.2786 0.731801 -0.0259123 1.97692e-009 -5.49151e-009 -3.71686e-010 -2.22167 -0.733487 0.20892 -2.03217e-016 0 -3.88251e-019 -1.9812 -33.4954 12.554 -0.100279 21.4104 0.398076 -2.37042 -3.93989 -12.0098 2.03217e-016 0 3.88251e-019 -5.57363 12.8647 3.85395 -0.029836 2.56503 -0.269377 -0.101239 -0.492542 -16.9232 
